<svg width="24" height="25" viewBox="0 0 24 25" fill="none" xmlns="http://www.w3.org/2000/svg">
<path d="M12 11.5V16.5M12 21.5C10.8181 21.5 9.64778 21.2672 8.55585 20.8149C7.46392 20.3626 6.47177 19.6997 5.63604 18.864C4.80031 18.0282 4.13738 17.0361 3.68508 15.9442C3.23279 14.8522 3 13.6819 3 12.5C3 11.3181 3.23279 10.1478 3.68508 9.05585C4.13738 7.96392 4.80031 6.97177 5.63604 6.13604C6.47177 5.30031 7.46392 4.63738 8.55585 4.18508C9.64778 3.73279 10.8181 3.5 12 3.5C14.3869 3.5 16.6761 4.44821 18.364 6.13604C20.0518 7.82387 21 10.1131 21 12.5C21 14.8869 20.0518 17.1761 18.364 18.864C16.6761 20.5518 14.3869 21.5 12 21.5ZM12.05 8.5V8.6H11.95V8.5H12.05Z" stroke="#AAAABF" stroke-width="2" stroke-linecap="round" stroke-linejoin="round"/>
</svg>
