<svg width="19" height="19" viewBox="0 0 19 19" fill="none" xmlns="http://www.w3.org/2000/svg">
<path d="M8.33672 6.2575C9.01596 6.30621 9.67759 6.50131 10.2752 6.82781C10.7981 7.1136 11.2623 7.49464 11.6434 7.95086L11.8016 8.15106L11.8582 8.23602C12.119 8.6703 12.0136 9.24033 11.5994 9.55047C11.1849 9.86049 10.6085 9.80029 10.2654 9.42742L10.2 9.34832L10.1082 9.23309C9.88762 8.96896 9.61894 8.74816 9.31622 8.5827C8.97031 8.39372 8.58729 8.28085 8.19415 8.25262C7.80109 8.22447 7.40616 8.282 7.03692 8.41961C6.66762 8.55737 6.33126 8.77274 6.05254 9.05145L3.81426 11.2897L3.6375 11.4919C3.24911 11.982 3.03745 12.5927 3.04278 13.2233C3.04904 13.9444 3.33857 14.6343 3.84844 15.1442C4.3583 15.654 5.04836 15.9436 5.76934 15.9499C6.49006 15.9559 7.18449 15.6781 7.70293 15.1774L8.97344 13.9079C9.364 13.5177 9.99711 13.5175 10.3875 13.9079C10.7777 14.2983 10.7776 14.9315 10.3875 15.322L9.09258 16.6169C8.19692 17.4818 6.99682 17.9605 5.75176 17.9499C4.50638 17.9391 3.31506 17.4389 2.43438 16.5583C1.55369 15.6776 1.0536 14.4863 1.04278 13.2409C1.03208 11.9958 1.51081 10.7958 2.37579 9.90008L4.63848 7.63738C5.1199 7.15598 5.69981 6.78354 6.3377 6.54559C6.97562 6.30773 7.65763 6.2089 8.33672 6.2575ZM13.2488 1.04949C14.4941 1.06034 15.6856 1.56057 16.5662 2.4411C17.4467 3.32171 17.946 4.51321 17.9568 5.75848C17.9676 7.00381 17.489 8.2035 16.6238 9.0993C16.6198 9.10343 16.6162 9.10793 16.6121 9.11199L14.3621 11.362C13.8806 11.8436 13.301 12.2158 12.6629 12.4538C12.0248 12.6918 11.3422 12.7896 10.6629 12.7409C9.98377 12.6922 9.32291 12.498 8.7254 12.1716C8.20247 11.8858 7.73828 11.5047 7.35723 11.0485L7.19903 10.8483L7.14239 10.7634C6.8816 10.3289 6.98669 9.75897 7.40118 9.44891C7.81568 9.13903 8.39215 9.19912 8.73516 9.57195L8.80059 9.65106L8.89239 9.76629C9.11297 10.0304 9.38169 10.2513 9.68438 10.4167C10.0303 10.6057 10.4132 10.7186 10.8064 10.7468C11.1996 10.7749 11.5943 10.7175 11.9637 10.5798C12.3331 10.4419 12.6693 10.2268 12.9481 9.94793L15.1854 7.70965C15.6861 7.19111 15.964 6.49689 15.9578 5.77606C15.9515 5.05519 15.6619 4.36495 15.1522 3.85516C14.6423 3.34543 13.9522 3.05576 13.2313 3.04949C12.5152 3.04336 11.8249 3.31675 11.3074 3.81121L10.0174 5.09344C9.62573 5.48282 8.99271 5.48119 8.60332 5.08953C8.21418 4.69785 8.21565 4.06478 8.60723 3.67547L9.89727 2.39324L9.90801 2.3825C10.8038 1.51755 12.0037 1.03873 13.2488 1.04949Z" fill="#2F2F3E"/>
</svg>
