<svg width="32" height="32" viewBox="0 0 32 32" fill="none" xmlns="http://www.w3.org/2000/svg">
<g clip-path="url(#clip0_2184_3236)">
<path d="M12.204 3.1582C12.9036 2.45831 13.8402 2.04619 14.8289 2.00324C15.8175 1.96029 16.7863 2.28962 17.544 2.9262L17.796 3.1582L19.87 5.2322L22.81 5.2362C24.79 5.2362 26.43 6.6902 26.72 8.5902L26.754 8.8942L26.764 9.1902L26.762 12.1242L28.842 14.2042C30.222 15.5862 30.368 17.7362 29.278 19.2782L29.072 19.5442L28.842 19.7962L26.762 21.8682L26.764 24.8122C26.764 26.7922 25.31 28.4322 23.41 28.7202L23.106 28.7542L22.81 28.7642L19.868 28.7622L17.796 30.8422C17.1366 31.5 16.2664 31.9043 15.3384 31.984C14.4104 32.0638 13.484 31.8138 12.722 31.2782L12.456 31.0742L12.204 30.8422L10.124 28.7622L7.188 28.7642C5.208 28.7642 3.568 27.3102 3.28 25.4102L3.246 25.1082L3.236 24.8122L3.232 21.8702L1.158 19.7962C0.4994 19.1369 0.0944149 18.2664 0.0143004 17.338C-0.0658142 16.4095 0.184075 15.4826 0.720001 14.7202L0.926001 14.4562L1.156 14.2042L3.232 12.1242L3.236 9.1862C3.236 7.2062 4.69 5.5662 6.59 5.2782L6.892 5.2442L7.188 5.2342L10.126 5.2302L12.204 3.1582ZM20.29 11.9782L20.12 12.1202L13 19.2402L9.88 16.1202C9.64465 15.8905 9.32884 15.762 9 15.762C8.67116 15.762 8.35535 15.8905 8.12 16.1202C7.91637 16.3281 7.79097 16.6 7.76508 16.8898C7.7392 17.1797 7.81443 17.4695 7.978 17.7102L8.12 17.8802L12.12 21.8802C12.3295 22.0883 12.6059 22.2155 12.9002 22.2393C13.1946 22.2631 13.4878 22.1819 13.728 22.0102L13.88 21.8802L21.88 13.8802C21.9986 13.7663 22.0929 13.6297 22.1574 13.4785C22.2218 13.3273 22.255 13.1646 22.255 13.0002C22.255 12.8358 22.2218 12.6731 22.1574 12.5219C22.0929 12.3707 21.9986 12.234 21.88 12.1202C21.6721 11.9166 21.4002 11.7912 21.1104 11.7653C20.8205 11.7394 20.5307 11.8146 20.29 11.9782Z" fill="#B531FD"/>
</g>
<defs>
<clipPath id="clip0_2184_3236">
<rect width="32" height="32" fill="white"/>
</clipPath>
</defs>
</svg>
