<svg width="80" height="80" viewBox="0 0 80 80" fill="none" xmlns="http://www.w3.org/2000/svg">
<g clip-path="url(#clip0_1745_39256)">
<path d="M40.0068 3.00977C40.8385 3.00977 41.3837 3.54899 41.3838 4.37207V9.50293C45.622 10.0542 49.0017 13.3813 49.5732 17.4766H63.4463V13.6572C63.4464 12.8343 63.9918 12.2951 64.8232 12.2949C65.6549 12.2949 66.2011 12.8341 66.2012 13.6572V17.4766H76.8369C77.6685 17.4767 78.2139 18.0168 78.2139 18.8398C78.2138 19.6628 77.6547 20.202 76.8369 20.2021H67.2705L74.6924 38.2188H78.6367C79.4683 38.2189 80.0137 38.7589 80.0137 39.582C79.8772 47.6386 73.2503 54.332 64.9736 54.332C56.6969 54.332 50.0841 47.6386 50.084 39.582C50.084 38.7588 50.6292 38.2188 51.4609 38.2188H55.1338L63.1582 20.2021H49.5049C48.7935 24.1148 45.7487 27.1603 41.8184 27.8428L45.7891 58.4346H56.2744C56.6833 58.4346 56.9695 58.57 57.2422 58.8398C57.5148 59.1098 57.6514 59.528 57.6514 59.7979L57.541 65.2979C63.621 65.7075 68.9367 69.9434 70.6465 75.7764L71.0322 77.1396H78.623C79.4546 77.1398 79.9999 77.6789 80 78.502C80 79.3251 79.4547 79.8651 78.623 79.8652H70.373L70.3223 79.8711C70.2029 79.8969 70.0832 80 69.9639 80H69.9365C69.7484 79.9999 69.5589 79.9511 69.3799 79.8652H11.5684C11.4392 79.8901 11.3064 79.8972 11.1729 79.8838L11.0449 79.8652H1.37695C0.545318 79.8651 0 79.3251 0 78.502C0.000100584 77.6789 0.545395 77.1398 1.37695 77.1396H10.3867L10.7725 75.7764C12.3114 70.5263 16.7613 66.5704 22.0762 65.5332V59.7979C22.0762 58.9747 22.6214 58.4346 23.4531 58.4346H35.6963L38.3633 27.8213C34.4716 27.0868 31.4032 23.9996 30.7539 20.2021H18.6426L26.666 38.2188H30.4756C31.3073 38.2188 31.8525 38.7588 31.8525 39.582C31.7161 47.6367 24.9562 54.3279 16.8184 54.3311C8.54535 54.3268 1.92299 47.636 1.92285 39.582C1.92285 38.7588 2.46803 38.2188 3.2998 38.2188H7.1084L14.5293 20.2021H3.99512C3.1635 20.2021 2.61828 19.6629 2.61816 18.8398C2.61816 18.0167 3.16341 17.4766 3.99512 17.4766H15.1768V13.6572C15.1769 12.8341 15.722 12.2949 16.5537 12.2949C17.3853 12.295 17.9306 12.8342 17.9307 13.6572V17.4766H30.7129C31.2721 13.4694 34.5199 10.1966 38.6299 9.54102V4.37207C38.63 3.54899 39.1751 3.00977 40.0068 3.00977ZM24.6943 67.9893C19.4583 67.9893 14.7674 71.5387 13.2402 76.5859L13.1104 77.1396H68.0312L67.8779 76.5859C66.3644 71.5387 61.6735 67.9893 56.4238 67.9893H24.6943ZM24.8301 65.25C24.9039 65.25 24.9757 65.2553 25.0449 65.2637H54.7949L54.8965 61.1602H46.1426L46.1973 61.5791C46.1972 61.9838 46.0611 62.402 45.9248 62.6719C45.6521 62.9417 45.2293 63.0771 44.8203 63.0771H36.8301C36.421 63.0771 36.134 62.9418 35.8613 62.6719C35.5888 62.402 35.4522 61.9838 35.4521 61.5791L35.4824 61.1602H24.8301V65.25ZM38.2783 59.3398C38.3199 59.4799 38.3438 59.6331 38.3438 59.7979C38.3437 59.9954 38.3113 60.1765 38.252 60.3379H43.1699L40.1299 37.6787L38.2783 59.3398ZM16.8262 54.332H16.8125C16.8144 54.332 16.8165 54.3311 16.8184 54.3311C16.821 54.3311 16.8236 54.332 16.8262 54.332ZM4.69043 40.958C5.38584 46.9634 10.4857 51.6064 16.8262 51.6064C23.1667 51.6064 28.2801 46.9634 28.9619 40.958H4.69043ZM52.8242 40.958C53.5196 46.9634 58.6194 51.6064 64.96 51.6064C71.3005 51.6064 76.4139 46.9634 77.0957 40.958H52.8242ZM10.1699 38.2188H23.708L16.6904 22.3887L10.1699 38.2188ZM58.0918 38.2188H71.6299L65.1104 22.3887L58.0918 38.2188ZM40.1436 12.1455C36.421 12.1455 33.3799 15.1558 33.3799 18.7051C33.3801 22.2542 36.4212 25.2637 40.1436 25.2637C43.8657 25.2634 46.906 22.254 46.9062 18.7051C46.7699 15.156 43.7295 12.1457 40.1436 12.1455ZM40.1436 14.4541C42.4887 14.4543 44.4248 16.3704 44.4248 18.6914C44.4247 21.0123 42.4886 22.9285 40.1436 22.9287C37.7983 22.9287 35.8615 21.0125 35.8613 18.6914C35.8613 16.3702 37.7982 14.4541 40.1436 14.4541ZM40.1436 17.207C39.3118 17.207 38.6299 17.8954 38.6299 18.7051C38.6301 19.5146 39.3256 20.2021 40.1436 20.2021C40.9614 20.2019 41.656 19.5145 41.6562 18.7051C41.6562 17.8955 40.9615 17.2073 40.1436 17.207ZM11.7266 12.1455V15.29C11.7266 15.38 11.6807 15.4248 11.5898 15.4248H8.41309C8.32227 15.4248 8.27734 15.38 8.27734 15.29V12.1455C8.27741 12.0557 8.32233 12.0108 8.41309 12.0107L11.7266 12.1455ZM6.62695 10.2432H3.17676V6.8291H6.62695V10.2432ZM13.5127 6.96387V10.1084C13.5125 10.1979 13.4674 10.243 13.377 10.2432H10.1992C10.1086 10.2431 10.0636 10.198 10.0635 10.1084V6.96387C10.0635 6.87398 10.1085 6.82918 10.1992 6.8291L13.5127 6.96387ZM56.5469 6.96387V10.1084C56.5467 10.1981 56.5009 10.2432 56.4102 10.2432H53.2334C53.1426 10.2432 53.0968 10.1981 53.0967 10.1084V6.96387C53.0967 6.8739 53.1425 6.8291 53.2334 6.8291L56.5469 6.96387ZM66.8965 5.33105V8.47559C66.8963 8.56527 66.8505 8.61035 66.7598 8.61035H63.583C63.4922 8.61035 63.4464 8.56527 63.4463 8.47559V5.33105C63.4463 5.24109 63.4921 5.19629 63.583 5.19629L66.8965 5.33105ZM10.0771 6.82812H6.62695V3.41406H10.0771V6.82812ZM59.9961 3.54883V6.69336C59.9961 6.78328 59.9512 6.82808 59.8604 6.82812H56.6836C56.5927 6.82812 56.5469 6.78333 56.5469 6.69336V3.54883C56.5469 3.45898 56.5928 3.41406 56.6836 3.41406L59.9961 3.54883ZM20.4121 1.91602V5.06055C20.4121 5.15043 20.3671 5.19522 20.2764 5.19531H17.0986C17.008 5.19519 16.9629 5.15039 16.9629 5.06055V1.91602C16.963 1.82629 17.008 1.78137 17.0986 1.78125L20.4121 1.91602ZM51.4473 1.91602V5.06055C51.4473 5.15052 51.4015 5.19531 51.3105 5.19531H48.1338C48.0429 5.19531 47.9971 5.15052 47.9971 5.06055V1.91602C47.9971 1.82617 48.0429 1.78125 48.1338 1.78125L51.4473 1.91602ZM13.5127 0.134766V3.2793C13.5127 3.36914 13.4676 3.41393 13.377 3.41406H10.1992C10.1085 3.41398 10.0635 3.36918 10.0635 3.2793V0.134766C10.0635 0.0450036 10.1085 8.15112e-05 10.1992 0L13.5127 0.134766Z" fill="#B531FD"/>
</g>
<defs>
<clipPath id="clip0_1745_39256">
<rect width="80" height="80" fill="white"/>
</clipPath>
</defs>
</svg>
