<svg width="80" height="80" viewBox="0 0 80 80" fill="none" xmlns="http://www.w3.org/2000/svg">
<g clip-path="url(#clip0_1745_39182)">
<g clip-path="url(#clip1_1745_39182)">
<path d="M58.0271 71.7334C58.9916 71.7336 59.7732 72.5096 59.7732 73.4668C59.7732 74.4239 58.9915 75.2 58.0271 75.2002C57.0625 75.2002 56.2801 74.4241 56.28 73.4668C56.28 72.5095 57.0624 71.7334 58.0271 71.7334ZM27.5466 52.2666C28.2133 51.5999 29.2934 51.5999 29.9734 52.2666C30.6534 52.9333 30.6534 54.0003 29.9734 54.667L9.74683 74.667C9.06689 75.3335 8.00003 75.3334 7.32007 74.667C6.64007 74.0003 6.64007 72.9333 7.32007 72.2666L27.5466 52.2666ZM29.8396 59.4668C30.5062 58.8002 31.5863 58.8003 32.2664 59.4668C32.7997 60.1335 32.7997 61.2005 32.2664 61.8672L19.3201 74.667C18.6401 75.3335 17.5733 75.3336 16.8933 74.667C16.2133 74.0003 16.2133 72.9333 16.8933 72.2666L29.8396 59.4668ZM67.3337 58.5332C70.5734 58.5334 73.2661 61.1997 73.2664 64.3994C73.2664 67.5993 70.5736 70.2664 67.3337 70.2666C64.0937 70.2666 61.4001 67.5994 61.4001 64.3994C61.4004 61.1996 64.0939 58.5332 67.3337 58.5332ZM41.573 57.333C42.2395 56.6665 43.3197 56.6668 43.9998 57.333C44.6798 57.9997 44.6798 58.9334 43.9998 59.7334L34.0134 69.6006C33.3335 70.267 32.2666 70.267 31.5867 69.6006C30.9067 68.9339 30.9067 67.8669 31.5867 67.2002L41.573 57.333ZM44.533 65.0674C45.5061 65.0674 46.2935 65.84 46.2937 66.7998C46.2937 67.7598 45.5063 68.5332 44.533 68.5332C43.5598 68.533 42.7869 67.7597 42.7869 66.7998C42.7871 65.8401 43.5733 65.0676 44.533 65.0674ZM67.3337 61.7334C65.8537 61.7334 64.7732 62.7999 64.7732 64.2666C64.7732 65.7332 65.9871 66.7998 67.3337 66.7998C68.6802 66.7996 69.8933 65.7331 69.8933 64.2666C69.8933 62.8001 68.8135 61.7336 67.3337 61.7334ZM5.8269 61.7334C6.80017 61.7335 7.573 62.5068 7.573 63.4668C7.57296 64.4267 6.78682 65.2001 5.8269 65.2002C4.86693 65.2002 4.06718 64.4268 4.06714 63.4668C4.06714 62.5068 4.85357 61.7334 5.8269 61.7334ZM19.7205 48.2666C20.3871 47.6001 21.4673 47.6 22.1472 48.2666C22.827 48.9333 22.8271 50.0004 22.1472 50.667L12.0271 60.667C11.3472 61.3335 10.2804 61.3333 9.60034 60.667C8.92034 60.0003 8.92034 58.9333 9.60034 58.2666L19.7205 48.2666ZM18.6404 39.8672C19.3204 39.2005 20.3871 39.2005 21.0671 39.8672C21.7334 40.5339 21.7332 41.6001 21.2 42.2666L3.80054 59.4668C3.13395 60.1334 2.05379 60.1332 1.37378 59.4668C0.693779 58.8001 0.693779 57.7331 1.37378 57.0664L18.6404 39.8672ZM34.4138 55.0674C35.3868 55.0676 36.1734 55.8401 36.1736 56.7998C36.1736 57.7597 35.387 58.533 34.4138 58.5332C33.4405 58.5332 32.6667 57.7598 32.6667 56.7998C32.667 55.84 33.454 55.0674 34.4138 55.0674ZM48.9871 0C64.2268 0.00019437 76.6402 12.2666 76.6404 27.333C76.6404 42.5329 64.2269 54.7996 48.9871 54.7998C33.7471 54.7998 21.3337 42.3997 21.3337 27.333C21.3339 12.2665 33.7472 0 48.9871 0ZM73.2664 48.4004C74.2395 48.4004 75.0269 49.173 75.0271 50.1328C75.0271 51.0928 74.2397 51.8662 73.2664 51.8662C72.2932 51.866 71.5203 51.0927 71.5203 50.1328C71.5205 49.1731 72.3066 48.4006 73.2664 48.4004ZM16.8796 32.1328C17.5595 31.4663 18.6264 31.4665 19.3064 32.1328C19.9864 32.7995 19.9864 33.8665 19.3064 34.5332L2.58667 51.0664C1.92002 51.7331 0.839915 51.7335 0.159912 51.2002C-0.520088 50.5335 -0.520088 49.4665 0.159912 48.7998L16.8796 32.1328ZM47.0935 3.2002C34.4135 4.13353 24.4402 14.5335 24.4402 27.2002C24.4403 39.8668 34.4272 50.4002 47.1072 51.2002V48.7998C35.7872 47.9998 26.8797 38.5334 26.8796 27.2002C26.8796 26.2669 27.6934 25.4668 28.6267 25.4668C29.56 25.4668 30.3738 26.2669 30.3738 27.2002C30.3739 37.3334 38.7338 45.5996 48.9871 45.5996C49.9201 45.5998 50.733 46.3999 50.7332 47.333V51.332C63.2603 50.5255 73.24 39.9952 73.24 27.333C73.2398 14.6665 63.2666 4.133 50.5867 3.33301V5.7334C61.9066 6.53339 70.8131 15.9998 70.8132 27.333C70.8132 28.2662 70.0003 29.0662 69.0671 29.0664C68.1338 29.0664 67.3201 28.2663 67.3201 27.333C67.3199 17.1998 59.0928 8.93359 48.8396 8.93359C47.9065 8.93335 47.0936 8.1333 47.0935 7.2002V3.2002ZM48.9871 12.4004C57.3468 12.4006 64.0934 18.9332 64.0935 27.333C64.0935 35.7329 57.4802 42.4002 48.9871 42.4004C40.4937 42.4004 33.7468 35.5997 33.7468 27.333C33.747 19.0664 40.6271 12.4004 48.9871 12.4004ZM48.9871 15.5996C42.3871 15.5996 37.12 20.7998 37.1199 27.333C37.1199 33.8663 42.5071 39.0664 48.9871 39.0664C55.4536 39.0662 60.7205 33.8662 60.7205 27.333C60.7203 20.7999 55.5868 15.5998 48.9871 15.5996ZM49.8005 19.4668C50.6138 19.6002 51.5469 19.8672 52.3601 20.1338C53.1734 20.4004 53.987 20.6665 54.5203 21.0664L53.0398 24C52.9048 23.8659 51.1459 22.9335 49.6667 22.667V25.6006C49.8001 25.6006 51.0134 25.8671 52.3601 26.4004H52.3865C53.7331 26.9337 54.4137 27.7337 54.947 28.667C55.3469 29.7336 55.3465 31.4666 54.8132 32.5332C54.4132 33.0665 54.1337 33.4672 53.6003 33.8672C52.5203 34.6672 51.173 35.0664 49.9597 35.0664V37.4668H48.4802V34.9336C46.5869 34.6669 44.5604 34.1331 42.947 33.0664L44.4265 30C44.4265 30.1333 44.5602 30.2671 44.8269 30.4004C45.5068 30.8003 46.44 31.2002 47.1199 31.4668C47.5199 31.7335 48.067 31.7339 48.6003 31.8672V29.0664L47.5203 28.7998C46.4404 28.3998 45.2271 28 44.4138 27.2002C43.7338 26.4002 43.4666 25.5999 43.4666 24.5332C43.4666 23.7333 43.6003 23.0665 43.8669 22.5332C44.6803 20.6668 46.2935 19.8673 48.3201 19.6006V17.4668H49.8005V19.4668ZM5.8269 30.1338C6.80003 30.1339 7.57277 30.9065 7.573 31.8662C7.573 32.8262 6.78684 33.5995 5.8269 33.5996C4.8669 33.5996 4.06714 32.8262 4.06714 31.8662C4.06737 30.9064 4.85371 30.1338 5.8269 30.1338ZM49.6531 31.7334C50.7331 31.7334 51.2664 31.3332 51.2664 30.5332C51.2663 30.2666 51.1335 30 50.8669 29.7334C50.6003 29.6001 50.1864 29.3335 49.6531 29.2002V31.7334ZM48.7205 22.7998C47.7738 22.7998 47.24 23.2001 47.24 24C47.24 24.2667 47.3737 24.5331 47.6404 24.7998C47.907 24.9332 48.1872 25.1997 48.7205 25.333V22.7998ZM9.19995 13.4668C11.8933 13.4668 14.3201 15.6004 14.3201 18.4004C14.3199 21.2003 12.0265 23.4668 9.19995 23.4668C6.37334 23.4667 4.07983 21.3332 4.07983 18.5332C4.07998 15.7334 6.50675 13.4669 9.19995 13.4668ZM9.19995 16.7998C8.26667 16.7999 7.45386 17.4671 7.45386 18.4004C7.45403 19.3336 8.40005 20.1337 9.19995 20.1338C9.99995 20.1338 10.947 19.4665 10.947 18.5332C10.9469 17.6 10.1465 16.7998 9.19995 16.7998ZM19.3064 5.06738C20.2796 5.06738 21.0532 5.84 21.0535 6.7998C21.0535 7.7598 20.2664 8.5332 19.3064 8.5332C18.3465 8.53303 17.5603 7.7597 17.5603 6.7998C17.5605 5.84011 18.3467 5.06755 19.3064 5.06738ZM71.5066 1.7334C72.4799 1.7334 73.2537 2.5068 73.2537 3.4668C73.2536 4.42677 72.4666 5.2002 71.5066 5.2002C70.5466 5.20016 69.7596 4.42674 69.7595 3.4668C69.7595 2.50682 70.5466 1.73344 71.5066 1.7334Z" fill="#2F2F3E"/>
</g>
</g>
<defs>
<clipPath id="clip0_1745_39182">
<rect width="80" height="80" fill="white"/>
</clipPath>
<clipPath id="clip1_1745_39182">
<rect width="80" height="80" fill="white"/>
</clipPath>
</defs>
</svg>
