<svg width="80" height="80" viewBox="0 0 80 80" fill="none" xmlns="http://www.w3.org/2000/svg">
<g clip-path="url(#clip0_1745_39317)">
<path d="M61.2402 8.40039C66.7733 8.40057 71.3601 12.9331 71.3604 18.3994C71.3604 22.1327 69.3328 25.4669 66.0928 27.2002L71.8936 31.8662C74.0535 33.4662 74.4531 36.3999 73.1064 38.5332C74.7331 39.3332 75.9467 41.0665 76.0801 43.0664V71.0664C76.0801 74.533 72.7067 76.7998 69.4668 76C68.8001 78.3999 66.7733 80 64.3467 80H19.8398C17.4132 80 15.2531 78.3999 14.7197 76C11.3465 76.9332 8.10645 74.533 8.10645 71.0664V43.2002C8.10645 41.0669 9.18693 39.3332 10.9336 38.5332C9.58693 36.3999 10.1198 33.5995 12.1465 31.8662L37.7734 11.333C40.2 9.3333 43.7062 9.33337 46.1328 11.333L51.5332 15.5996C52.7466 11.4664 56.6537 8.40039 61.2402 8.40039ZM41.9463 54.667C41.2592 55.3392 19.8264 72.4003 18.6133 73.4668C17.68 74.1335 17.9467 75.2001 18.0801 75.4668C18.2269 75.7338 18.6269 76.667 19.8398 76.667H64.3467C65.5594 76.6669 65.9593 75.7339 66.0928 75.4668C66.0928 75.2001 66.3597 74.1335 65.4131 73.4668C62.9864 71.4668 45.1864 57.3337 41.9463 54.667ZM39.2529 75.0664H35.8799V71.7334H39.2529V75.0664ZM44.3867 75.0664H41.0137V71.7334H44.3867V75.0664ZM49.373 71.7334V75.0664H46V71.7334H49.373ZM72.5732 43.333C72.5731 41.7332 70.8129 40.9329 69.5996 41.8662L50.4531 57.2002C51.9335 58.4005 68.3848 71.4654 69.5996 72.5332C70.8263 73.4665 72.5732 72.5331 72.5732 71.0664V43.333ZM14.4395 41.5996C13.2128 40.6668 11.4669 41.4667 11.4668 43.0664V70.9336C11.467 72.1334 12.4138 72.7998 13.3604 72.7998C13.7601 72.7997 14.1729 72.6663 14.4395 72.2666C18.2128 69.3333 26.1736 62.9336 33.5869 56.9336L14.4395 41.5996ZM44.1201 13.8662C42.9069 12.933 41.1469 12.9332 39.9336 13.8662L14.1729 34.3994C13.2263 35.066 13.2265 36.533 14.4395 37.333C18.346 40.5329 32.5192 51.8661 36.5596 55.0664L41.1465 51.333C41.8265 50.7997 42.6267 50.7997 43.3066 51.333L47.8936 55.0664C48.5782 54.3961 69.3338 37.8663 70.0137 37.333C70.9598 36.6663 70.9599 35.1999 70.0137 34.5332L62.3203 28.3994C56.8003 28.9327 51.9466 25.0663 51.2666 19.5996L44.1201 13.8662ZM42.627 23.0674C48.1601 23.0676 52.7471 27.6008 52.7471 33.0674C52.7468 38.5337 48.16 43.0672 42.627 43.0674C37.0938 43.0674 32.5071 38.5338 32.5068 33.0674C32.5068 27.6007 37.0936 23.0674 42.627 23.0674ZM42.627 26.4004C38.987 26.4004 35.8799 29.334 35.8799 33.0674C35.8801 36.8005 38.8538 39.7334 42.627 39.7334C46.4 39.7332 49.3728 36.8004 49.373 33.0674C49.373 29.3342 46.4001 26.4006 42.627 26.4004ZM43.3066 29.2002C43.7066 29.2002 44.2533 29.3335 44.6533 29.4668C45.0533 29.6001 45.4668 29.8667 45.7334 30L44.9199 31.4668C44.9199 31.2001 43.9862 30.8003 43.1729 30.667V32.1338C43.3062 32.1338 43.8397 32.2666 44.5195 32.5332C45.5995 32.9332 46 33.5999 46 34.5332C46 36.1332 44.9199 36.9336 43.3066 36.9336V38.2666H42.4932V36.9336C41.4132 36.9336 40.3328 36.5333 39.5195 36L40.333 34.4004C40.4669 34.6671 41.5473 35.1997 42.627 35.333V34L42.0928 33.8662C40.7465 33.4663 39.9336 33.0665 39.9336 31.7334C39.9336 30.4001 40.8799 29.3336 42.4932 29.2002V28.1338H43.3066V29.2002ZM43.1729 35.2002C43.7194 35.2002 43.9862 35.0667 43.9863 34.667C43.9863 34.5337 43.8531 34.3999 43.7197 34.2666C43.5731 34.1334 43.3066 34.1332 43.04 34L43.1729 35.2002ZM42.6396 30.667C42.0933 30.6671 41.8263 30.9332 41.8262 31.333C41.8262 31.4663 41.8266 31.6001 41.96 31.7334C42.1066 31.7334 42.2399 31.8667 42.6396 32V30.667ZM61.2402 11.7334C57.4671 11.7334 54.4934 14.6663 54.4932 18.3994C54.4932 22.1327 57.4669 25.0664 61.2402 25.0664C65.0134 25.0662 67.9863 22.1326 67.9863 18.3994C67.9861 14.6664 65.0132 11.7336 61.2402 11.7334ZM61.9199 14.5332C62.3199 14.5332 62.8666 14.6665 63.2666 14.7998C63.6666 14.9331 64.08 15.1997 64.3467 15.333L63.5332 16.7998C63.5324 16.5331 62.5991 16.1333 61.7861 16V17.4668C61.9195 17.4668 62.4529 17.6006 63.1328 17.8672C63.8128 18.1339 64.2133 18.5336 64.3467 18.9336C64.6133 19.467 64.6133 20.4003 64.3467 20.9336C63.8133 21.8669 62.8661 22.2666 61.7861 22.2666V23.6006H60.9736V22.2666C59.8936 22.2666 58.8133 21.8663 58 21.333L58.8135 19.7334C58.9473 19.8669 60.0272 20.4004 61.2402 20.667V19.333C60.827 19.1997 59.7601 18.9336 59.0801 18.4004C58.6801 18.0004 58.5469 17.5997 58.5469 17.0664C58.5471 15.7333 59.4933 14.6666 61.1064 14.5332V13.4668H61.9199V14.5332ZM61.7861 20.5332C62.3328 20.5332 62.5996 20.4 62.5996 20C62.5995 19.8668 62.4663 19.7338 62.333 19.6006C62.1863 19.4673 61.92 19.4663 61.6533 19.333L61.7861 20.5332ZM14.04 0C19.56 6.43807e-05 24.1465 4.53337 24.1465 10H24.1602C24.1602 15.4666 19.5733 19.9999 14.04 20C8.50671 20 3.91992 15.4667 3.91992 10C3.91992 4.53333 8.52004 0 14.04 0ZM61.1201 15.8672C60.5736 15.8672 60.3068 16.1333 60.3066 16.5332C60.3066 16.6665 60.3063 16.8003 60.4395 16.9336C60.5861 17.0669 60.8535 17.2002 61.1201 17.2002V15.8672ZM14.04 3.33301C10.2667 3.33301 7.29297 6.26667 7.29297 10C7.29297 13.7333 10.2667 16.667 14.04 16.667C17.8133 16.6669 20.7861 13.7333 20.7861 10C20.7861 6.26671 17.8133 3.33307 14.04 3.33301ZM14.5869 6.13379C14.9869 6.13386 15.5337 6.26709 15.9336 6.40039C16.3335 6.53376 16.7471 6.8003 17.0137 6.93359L16.2002 8.40039C16.2002 8.13372 15.2528 7.73392 14.4395 7.60059V9.06738C14.5728 9.06738 15.1063 9.20024 15.7861 9.4668C16.466 9.7334 16.8666 10.1333 17 10.5332C17.2666 11.0664 17.2665 11.9998 17 12.5332C16.4667 13.4665 15.5195 13.8672 14.4395 13.8672V15.2002H14.4531L13.7734 15.4668V14.1338C12.6934 14.1338 11.6131 13.7335 10.7998 13.2002L11.6133 11.6006C11.7473 11.8674 12.8271 12.3999 13.7734 12.5332V11.0674C13.5068 10.934 12.8263 10.7999 12.293 10.5332C11.7465 10.2666 11.3462 10 11.2129 9.4668C11.0796 8.93355 11.0802 8.13386 11.3467 7.60059C11.88 6.66725 12.6934 6.26712 13.7734 6.13379V5.06738H14.5869V6.13379ZM14.5732 12.1338C15.1197 12.1338 15.3866 12.0003 15.3867 11.6006C15.3867 11.4673 15.2534 11.3335 15.1201 11.2002C14.9735 11.0669 14.7061 11.0669 14.4395 10.9336L14.5732 12.1338ZM13.9062 7.60059C13.3599 7.6007 13.0929 7.86685 13.0928 8.2666C13.0928 8.39993 13.0932 8.53366 13.2266 8.66699C13.3732 8.66699 13.6397 8.8003 13.9062 8.93359V7.60059Z" fill="#D07AFE"/>
</g>
<defs>
<clipPath id="clip0_1745_39317">
<rect width="80" height="80" fill="white"/>
</clipPath>
</defs>
</svg>
