<svg width="80" height="80" viewBox="0 0 80 80" fill="none" xmlns="http://www.w3.org/2000/svg">
<g clip-path="url(#clip0_1756_16796)">
<path d="M7.21777 67.1309C10.5452 67.131 13.3506 69.8554 13.3506 73.2061C13.3504 76.5565 10.603 79.2811 7.21777 79.2812C3.83238 79.2812 1.08416 76.5566 1.08398 73.2061C1.08398 69.8553 3.83227 67.1309 7.21777 67.1309ZM23.333 75.0264C24.4808 75.0264 25.4092 75.9419 25.4092 77.0781C25.4091 78.2143 24.4808 79.1416 23.333 79.1416C22.1854 79.1414 21.2578 78.2026 21.2578 77.0781C21.2578 75.9536 22.1854 75.0266 23.333 75.0264ZM60.168 74.0527C61.3158 74.0527 62.2432 74.9683 62.2432 76.1045C62.2431 77.2407 61.3158 78.168 60.168 78.168C59.0203 78.1678 58.0928 77.229 58.0928 76.1045C58.0928 74.9799 59.0203 74.0529 60.168 74.0527ZM70.5684 4.8584C70.8234 4.85843 71.0904 4.91631 71.3223 5.03223C71.5318 5.10218 72.3299 5.43855 72.3301 6.59668L71.8555 11.791C75.3105 11.4839 77.0494 11.3292 77.0723 11.3271C77.6867 11.3271 78.3947 11.7677 78.6846 12.3242C78.9512 12.8459 78.9739 13.6692 78.3945 14.2373L71.252 21.2988C70.9968 21.5422 70.5218 21.8085 70.1162 21.8086L63.5986 22.3408L63.1826 22.7012C74.8232 35.3968 74.3249 55.5135 62.0234 67.6758C55.7743 73.8437 47.4843 77.2518 38.6846 77.252C29.8846 77.252 21.594 73.8554 15.3447 67.6758C9.14183 61.3917 5.72168 53.1708 5.72168 44.5215C5.72179 26.5158 20.5395 11.8604 38.7539 11.8604C46.9741 11.8604 54.8237 14.8523 60.8643 20.2783L61.2236 19.9307L61.7568 13.4492C61.7568 12.8928 62.0928 12.5568 62.2783 12.3828L69.4199 5.32129C69.7214 5.01984 70.1278 4.8584 70.5684 4.8584ZM7.21777 70.4111C5.71059 70.4111 4.52745 71.5708 4.52734 73.0664C4.52734 74.5621 5.7569 75.7217 7.21777 75.7217C8.6785 75.7215 9.90723 74.5619 9.90723 73.0664C9.90712 71.571 8.72479 70.4113 7.21777 70.4111ZM38.5918 15.1533C22.2788 15.1533 9.00293 28.267 9.00293 44.3945C9.00303 52.2204 12.1104 59.5824 17.7334 65.1475C23.345 70.6895 30.8002 73.7393 38.7422 73.7393L38.7188 73.7275C46.6608 73.7275 54.1159 70.6778 59.7275 65.1357C70.7419 54.3879 71.1591 36.3942 60.7012 24.916L56.8057 28.7656C65.1649 38.1685 64.6894 52.4178 55.6924 61.3105C51.136 65.8088 45.084 68.29 38.6611 68.29C32.238 68.29 26.1854 65.809 21.6289 61.3105C17.0724 56.8004 14.5567 50.8174 14.5566 44.4639C14.5566 38.1102 17.0724 32.1273 21.6289 27.6172C26.2086 23.165 32.2614 20.7188 38.6846 20.7188C44.5278 20.7189 50.1507 22.771 54.5332 26.5273L58.4404 22.667C53.1072 17.8207 46.0699 15.1534 38.5918 15.1533ZM38.9619 24C33.4433 24.0001 28.2496 26.1337 24.3193 30.0176C20.4121 33.8784 18.2549 39.0376 18.2549 44.5332C18.2549 50.0289 20.4121 55.188 24.3193 59.0488C28.2961 62.9096 33.5361 65.0429 39.0664 65.043C44.5968 65.043 49.8027 62.9213 53.71 59.0488C61.2924 51.4315 61.7563 39.2815 54.8115 31.3047L50.3477 35.7217C52.3534 38.226 53.4199 41.2637 53.4199 44.5332C53.4199 52.4636 46.8925 58.9219 38.8809 58.9219C30.8694 58.9217 24.3418 52.4635 24.3418 44.5332C24.3418 36.6029 30.8579 30.1447 38.8809 30.1445C42.0665 30.1445 45.3099 31.2565 47.8018 33.2012L52.377 28.9043C48.6436 25.7391 43.8895 24 38.9619 24ZM76.8408 57.7158C77.9885 57.7159 78.9159 58.6432 78.916 59.7793C78.916 60.9155 77.9886 61.8437 76.8408 61.8438C75.693 61.8438 74.7656 60.9155 74.7656 59.7793C74.7658 58.6432 75.6931 57.7158 76.8408 57.7158ZM3.29883 54.25C4.44656 54.2501 5.37402 55.1656 5.37402 56.3018C5.37398 57.4379 4.44654 58.3651 3.29883 58.3652C2.15103 58.3652 1.22367 57.4264 1.22363 56.3018C1.22363 55.1771 2.151 54.25 3.29883 54.25ZM38.7422 33.5879C32.6204 33.5879 27.6465 38.5043 27.6465 44.5449C27.6465 50.5855 32.6205 55.501 38.7422 55.501C44.8639 55.5009 49.8379 50.5854 49.8379 44.5449C49.8379 42.1565 49.0842 39.9072 47.6465 37.9941L45.8955 39.7217C45.71 39.8956 45.374 40.2313 44.7598 40.2314C44.1105 40.2314 43.5303 39.8261 43.2637 39.1885C42.997 38.5392 43.1478 37.8082 43.6348 37.3213L45.3389 35.7334C43.4143 34.3538 41.0841 33.5879 38.7422 33.5879ZM40.2148 39.6172C40.7712 39.652 41.2928 39.7796 41.7217 39.9883C42.1159 40.081 42.6033 40.3009 43.0322 40.5791L43.2061 40.6953L41.9541 43.0146L41.7568 42.6201C41.6757 42.4926 40.8985 42.0401 40.0869 41.8662V43.1299C40.4 43.1879 40.9801 43.327 41.583 43.582L41.5947 43.5596C42.8928 44.0349 43.496 44.8693 43.4961 46.2139C43.4961 46.7008 43.496 47.2114 43.2178 47.6172C43.0902 48.023 42.7536 48.3009 42.4521 48.498C41.9189 48.927 41.1541 49.1821 40.3311 49.2285V51.0957H38.8115V49.5654C37.5826 49.4147 36.4692 49.0196 35.5186 48.3936L35.3447 48.2783L36.377 46.2373L36.8174 46.3418C36.829 46.3302 36.8409 46.3301 36.8525 46.3301C36.8872 46.3302 36.9333 46.365 36.9795 46.4111C37.4549 46.6314 38.2669 46.9683 38.9277 47.1074V45.8545C38.5336 45.7733 37.861 45.5536 37.293 45.2754C36.6205 44.8696 36.1447 44.4866 35.8896 43.8721C35.6463 43.385 35.6119 42.3879 36.0176 41.5996C36.4582 40.5099 37.4436 39.8146 38.8115 39.6406V38.3418H40.2148V39.6172ZM40.0869 46.9102C40.6778 46.8522 40.6787 46.5857 40.6787 46.458C40.6787 46.2147 40.6668 46.1333 40.5742 46.0869C40.4815 46.0173 40.3652 45.9247 40.0869 45.8203V46.9102ZM39.0322 41.6689C38.6148 41.7965 38.5566 41.9942 38.5566 42.1797C38.5567 42.3185 38.6031 42.3648 38.7188 42.4805C38.7535 42.5268 38.8467 42.5849 39.0322 42.666V41.6689ZM75.8672 28.209C77.0131 28.2092 77.9422 29.133 77.9424 30.2725C77.9424 31.4121 77.0132 32.3367 75.8672 32.3369C74.721 32.3369 73.791 31.4122 73.791 30.2725C73.7912 29.1328 74.7211 28.209 75.8672 28.209ZM5.81445 23.9189C6.96218 23.9189 7.88949 24.8579 7.88965 25.9824C7.88965 27.1071 6.96228 28.0352 5.81445 28.0352C4.6667 28.0351 3.73926 27.1186 3.73926 25.9824C3.73942 24.8464 4.6668 23.919 5.81445 23.9189ZM70.7656 15.2695L67.4033 18.5967L69.3389 18.4229L72.7012 15.0957L70.7656 15.2695ZM12.4121 16.8232H12.4004C12.4023 16.8232 12.4043 16.8223 12.4062 16.8223C12.4081 16.8223 12.4103 16.8232 12.4121 16.8232ZM12.4004 3.01465C16.1799 3.0148 19.3798 6.1683 19.3799 9.91309C19.3799 13.656 16.1833 16.8188 12.4062 16.8223C8.62892 16.8192 5.43164 13.6446 5.43164 9.91309C5.43171 6.1798 8.62072 3.01465 12.4004 3.01465ZM65.165 14.3076L64.9795 16.2207V16.2314L68.3652 12.8809L68.5508 10.9678L65.165 14.3076ZM12.4004 6.43457C10.4526 6.43457 8.86432 8.00009 8.86426 9.91309C8.86426 11.8261 10.4642 13.3916 12.4004 13.3916C14.3365 13.3915 15.9248 11.826 15.9248 9.91309C15.9247 8.00018 14.3481 6.43471 12.4004 6.43457ZM61.0146 5.78613C62.1624 5.78618 63.0898 6.70169 63.0898 7.83789C63.0898 8.97406 62.1624 9.90132 61.0146 9.90137C59.8668 9.90137 58.9395 8.9625 58.9395 7.83789C58.9395 6.71325 59.8668 5.78613 61.0146 5.78613ZM25.1533 2.31836C26.3011 2.31836 27.2285 3.23486 27.2285 4.37109C27.2285 5.50729 26.3011 6.43457 25.1533 6.43457C24.0057 6.43441 23.0782 5.4956 23.0781 4.37109C23.0781 3.24655 24.0056 2.31852 25.1533 2.31836Z" fill="#B531FD"/>
</g>
<defs>
<clipPath id="clip0_1756_16796">
<rect width="80" height="80" fill="white"/>
</clipPath>
</defs>
</svg>
