<svg width="80" height="80" viewBox="0 0 80 80" fill="none" xmlns="http://www.w3.org/2000/svg">
<g clip-path="url(#clip0_1756_16713)">
<path d="M74.0195 20.3545C77.2005 20.3612 79.8424 22.85 79.9736 26.124V53.5342C79.9736 53.9276 79.8427 54.4525 79.4492 54.7148L60.6162 71.8945L59.6855 76.4854C59.5544 77.2721 58.8985 77.7968 58.0986 77.7969H42.4395C41.5215 77.7969 40.7217 77.0098 40.7217 76.0918V60.4854C40.7217 59.9608 40.9972 59.4361 41.3906 59.1738L62.7539 42.2559C64.3538 41.0756 66.3341 40.6823 68.1963 41.3379V26.124C68.1966 22.9811 70.8387 20.3618 74.0195 20.3545ZM5.83594 20.3545C9.02266 20.3545 11.6716 22.9767 11.6719 26.124V41.3379C13.5342 40.6822 15.5283 40.9444 17.1152 42.2559L38.4785 59.1738H38.4658C38.8722 59.4362 39.1345 59.9609 39.2656 60.4854V75.9609C39.2654 76.8788 38.4652 77.665 37.5342 77.665H21.875C21.0884 77.6649 20.4194 77.141 20.2881 76.3545L19.3574 71.7637L0.524414 54.584C0.131017 54.3217 3.0091e-05 53.7967 0 53.4033V26.124C0.000264664 22.9767 2.64927 20.3546 5.83594 20.3545ZM74.0068 23.6328C72.6824 23.6328 71.4885 24.6816 71.4883 26.124V44.6162C72.2882 46.7144 71.7509 48.9438 70.0332 50.5176L59.0166 60.4854C58.3609 61.0099 57.2987 61.0093 56.6299 60.3535C56.0923 59.6978 56.0919 58.6489 56.7607 57.9932L67.7773 48.0264C68.4461 47.5018 68.5774 46.7146 68.4463 45.9277C68.3152 45.6656 68.1837 45.5345 68.1836 45.2725C67.5147 44.0921 65.9275 43.829 64.8652 44.7471C64.8652 44.7471 65.5341 44.2233 44.0391 61.2725V74.5176H56.6426L57.0361 72.6816H49.7441C48.8262 72.6816 48.0264 71.8946 48.0264 70.9766C48.0266 70.0587 48.8132 69.2725 49.7441 69.2725H58.374L76.5508 52.6162H76.5244V26.124C76.5242 24.8128 75.4623 23.633 74.0068 23.6328ZM5.82324 23.6328C4.4988 23.6328 3.30495 24.6816 3.30469 26.124V52.6162L21.4824 69.1406H30.1113C31.0293 69.1406 31.829 69.9277 31.8291 70.8457C31.8291 71.7637 31.0425 72.5508 30.1113 72.5508H22.8193L23.2129 74.3867H35.79V61.2725C16.4043 45.872 15.0387 44.8032 14.9639 44.7471C13.9016 43.8293 12.3143 44.0922 11.6455 45.2725C11.6454 45.5345 11.5148 45.7966 11.3838 45.9277C11.2526 46.7146 11.3839 47.5018 12.0527 48.0264L23.0693 57.9932C23.7248 58.6488 23.8686 59.6978 23.2002 60.3535C22.5314 61.0092 21.4823 61.1408 20.8135 60.4854L9.79688 50.5176C8.07892 48.9438 7.54083 46.7145 8.34082 44.6162V26.124C8.34053 24.8128 7.14756 23.633 5.82324 23.6328ZM39.9346 3.69824C52.2755 3.69833 62.3477 13.6656 62.3477 25.8623H62.3604C62.3603 38.0589 52.2754 48.0263 39.9346 48.0264C27.5936 48.0264 17.5079 38.059 17.5078 25.8623C17.5078 13.6656 27.5936 3.69824 39.9346 3.69824ZM39.9346 6.8457C29.3247 6.8457 20.8262 15.2396 20.8262 25.7314C20.8264 36.2231 29.456 44.6162 39.9346 44.6162C50.413 44.6161 59.0427 36.223 59.043 25.7314C59.043 15.2397 50.5443 6.84579 39.9346 6.8457ZM39.9346 11.8301C47.764 11.8302 53.9932 18.1249 53.9932 25.7314C53.993 33.3378 47.6197 39.6327 39.9346 39.6328C32.2494 39.6328 25.8751 33.3379 25.875 25.7314C25.875 18.1249 32.1051 11.8301 39.9346 11.8301ZM39.9346 15.2393C33.9674 15.2393 29.1934 19.9607 29.1934 25.8623C29.1934 31.7639 33.9674 36.4854 39.9346 36.4854C45.9017 36.4853 50.6758 31.7639 50.6758 25.8623C50.6757 19.9608 45.9017 15.2394 39.9346 15.2393ZM40.5898 19.6982C41.2587 19.8294 41.9151 19.9613 42.584 20.2236C43.2395 20.4859 43.7773 20.7475 44.3018 21.0098L43.1084 23.2393C42.9769 23.1079 41.6522 22.3216 40.459 22.1904V24.4199C40.7213 24.4199 41.5217 24.6818 42.584 25.0752H42.5703C44.0261 25.5998 44.695 26.6499 44.8262 28.2236C44.8261 28.8792 44.6949 29.4035 44.4326 29.7969C43.908 30.7149 43.1079 31.2397 42.1768 31.502C41.6523 31.6331 41.1143 31.7637 40.5898 31.7637V33.7314H39.5283V31.7637C38.0726 31.6325 36.472 31.1082 35.1475 30.3213L36.3408 27.9609C36.472 27.9609 36.6032 28.0925 36.7344 28.2236C37.2722 28.6171 38.597 29.1413 39.6592 29.2725V27.043C39.2657 26.9118 38.3345 26.6493 37.4033 26.2559C36.7477 25.8625 36.0788 25.4692 35.8164 24.6826C35.5541 23.8957 35.5538 22.8458 35.9473 21.9277C36.6161 20.4853 37.9409 19.8294 39.3965 19.6982V17.9941H40.5898V19.6982ZM40.459 29.2725C41.39 29.2725 41.7831 28.879 41.7832 28.3545C41.7832 28.0923 41.6528 27.8294 41.3906 27.6982C41.1283 27.5671 40.8524 27.4358 40.459 27.3047V29.2725ZM39.6719 22.1904C38.8721 22.1905 38.4785 22.5839 38.4785 23.1084C38.4785 23.3706 38.6101 23.6325 38.7412 23.7637C39.0034 23.8948 39.2786 24.0261 39.6719 24.1572V22.1904ZM67.0166 11.502L64.6816 13.8232L66.9834 16.0986L69.2988 13.8232L71.6455 16.1309L69.2988 18.4521L66.957 16.1367L64.6426 18.4131L62.2949 16.1055L64.6426 13.7842L62.335 11.502L64.6816 9.18066L67.0166 11.502ZM71.6855 11.5283L69.3379 13.8496L66.9902 11.5283L69.3379 9.20703L71.6855 11.5283ZM10.6357 4.94434L8.29492 7.25781L10.6035 9.54102L12.918 7.26562L15.2656 9.57422L12.918 11.8955L10.5762 9.58008L8.2627 11.8691L5.91504 9.54785L8.25488 7.2334L5.9541 4.94434L8.28809 2.62305L10.6357 4.94434ZM15.292 4.9707L12.957 7.29199L10.6104 4.9707L12.957 2.66211L15.292 4.9707Z" fill="#B531FD"/>
</g>
<defs>
<clipPath id="clip0_1756_16713">
<rect width="80" height="80" fill="white"/>
</clipPath>
</defs>
</svg>
