<svg width="80" height="80" viewBox="0 0 80 80" fill="none" xmlns="http://www.w3.org/2000/svg">
<g clip-path="url(#clip0_1756_16909)">
<g clip-path="url(#clip1_1756_16909)">
<path d="M42.2266 10.0137C53.4131 10.0137 62.4529 18.9463 62.4531 30.0127V31.7461H69.2002C70.1333 31.7462 70.9461 32.5464 70.9463 33.4795V51.7461C70.9463 62.6794 64.747 72.0135 55.707 76.8135H70.9463C71.7596 76.8135 72.5737 77.4798 72.707 78.6797C72.707 79.613 71.893 80.4131 70.9463 80.4131H13.627C12.6803 80.4131 11.8672 79.613 11.8672 78.6797C11.8673 77.7464 12.6803 76.9463 13.627 76.9463H28.7334C19.6934 72.1463 13.4932 62.6798 13.4932 51.8799V33.4795C13.4934 32.5465 14.3066 31.7463 15.2529 31.7461H22V30.0127C22.0003 18.9463 31.0401 10.0137 42.2266 10.0137ZM17 39.8799H52.333C53.2797 39.8799 54.0938 40.6799 54.0938 41.6133C54.0937 42.5466 53.2796 43.3467 52.333 43.3467H17V51.7461H16.9863C16.9863 65.4793 28.1864 76.8132 42.2129 76.8135C56.2396 76.8135 67.5732 65.4794 67.5732 51.7461V35.0801H17V39.8799ZM6.66699 63.7334C9.49343 63.7336 11.787 66 11.7871 68.7998C11.7871 71.5997 9.49352 73.867 6.66699 73.8672C3.84033 73.8672 1.54688 71.5998 1.54688 68.7998C1.54702 65.9999 3.84041 63.7334 6.66699 63.7334ZM42.2266 48.4131C47.7599 48.4131 52.3466 52.9464 52.6133 58.4131C52.6133 63.3464 48.84 67.4792 44.1201 68.2793V71.7461C44.1201 72.6793 43.3069 73.4793 42.3604 73.4795C41.4137 73.4795 40.5996 72.6794 40.5996 71.7461V68.2793C35.7465 67.4791 32.1064 63.3463 32.1064 58.4131C32.1064 52.9465 36.6933 48.4132 42.2266 48.4131ZM6.66699 66.9336C5.73366 66.9336 4.91992 67.7337 4.91992 68.667C4.92007 69.6002 5.72041 70.4004 6.66699 70.4004C7.60011 70.4002 8.41294 69.6001 8.41309 68.667C8.41309 67.7338 7.6002 66.9338 6.66699 66.9336ZM78.04 63.334C79.0132 63.334 79.7869 64.1066 79.7871 65.0664C79.7871 66.0264 79 66.7998 78.04 66.7998C77.08 66.7998 76.293 66.0264 76.293 65.0664C76.2932 64.1066 77.0802 63.334 78.04 63.334ZM42.2266 51.7461C38.4533 51.7462 35.4805 54.6798 35.4805 58.4131C35.4805 62.1464 38.4533 65.08 42.2266 65.0801C45.9999 65.0801 48.9736 62.1464 48.9736 58.4131C48.9736 54.6798 45.9999 51.7461 42.2266 51.7461ZM42.9062 54.2793C43.3061 54.2793 43.853 54.4126 44.2529 54.5459C44.6527 54.6791 45.0663 54.9457 45.333 55.0791L44.5205 56.6797C44.3872 56.5464 43.4402 56.0133 42.627 55.8799V57.4795C42.6402 57.4822 43.3005 57.6159 43.9736 57.8799C45.0533 58.2799 45.4668 58.9462 45.7334 59.7461C45.7334 60.1459 45.6001 60.5458 45.4668 60.8125C45.2001 61.2125 45.0665 61.4799 44.7998 61.6133C44.2532 62.1464 43.5861 62.2793 42.9062 62.2793V63.6133H42.0938V62.2793C41.0139 62.2793 39.9334 61.8799 39.1201 61.3467L39.9336 59.7461C40.2003 60.0128 41.1467 60.5463 42.2266 60.6797V59.2129L41.6934 59.0791C40.4801 58.6791 39.5332 58.1458 39.5332 56.8125C39.5334 55.4794 40.3339 54.4126 42.0938 54.2793V53.0801H42.9062V54.2793ZM42.627 60.6797C43.1735 60.6796 43.4399 60.546 43.5732 60.0127C43.5731 59.8795 43.4399 59.7465 43.3066 59.6133C43.16 59.48 42.8935 59.4798 42.627 59.3467V60.6797ZM42.2266 56.0127C41.68 56.0127 41.4131 56.2797 41.4131 56.6797C41.4131 56.8129 41.4137 56.9459 41.5469 57.0791C41.6935 57.2124 41.8271 57.2133 42.0938 57.3467L42.2266 56.0127ZM8.34668 41.6006C9.31987 41.6006 10.0935 42.3732 10.0938 43.333C10.0938 44.293 9.30668 45.0664 8.34668 45.0664C7.3867 45.0664 6.58691 44.293 6.58691 43.333C6.58714 42.3732 7.37351 41.6006 8.34668 41.6006ZM42.2129 13.4795C32.9065 13.4797 25.3604 20.9467 25.3604 30.1465H25.3467V31.8799H28.7197V30.1465C28.7197 22.8133 34.7864 16.8137 42.2129 16.8135C49.6395 16.8135 55.707 22.8132 55.707 30.1465V31.8799H59.0801V30.1465C59.0801 20.9465 51.5195 13.4795 42.2129 13.4795ZM42.2266 20.0127C36.6935 20.0128 32.1067 24.5463 32.1064 30.0127V31.7461H52.3467V30.0127C52.3464 24.5462 47.7597 20.0127 42.2266 20.0127ZM76.4131 24.9336C77.3863 24.9336 78.1599 25.7062 78.1602 26.666C78.1602 27.626 77.3731 28.3994 76.4131 28.3994C75.4532 28.3992 74.667 27.6259 74.667 26.666C74.6672 25.7063 75.4534 24.9338 76.4131 24.9336ZM68.7334 4.93359C71.9734 4.9336 74.667 7.59981 74.667 10.7998C74.667 13.9998 71.9734 16.666 68.7334 16.666C65.4934 16.666 62.7998 13.9998 62.7998 10.7998C62.7998 7.5998 65.4934 4.93359 68.7334 4.93359ZM13.6797 10C14.653 10 15.4268 10.7734 15.4268 11.7334C15.4267 12.6934 14.6397 13.4668 13.6797 13.4668C12.7199 13.4666 11.92 12.6932 11.9199 11.7334C11.9199 10.7735 12.7065 10.0002 13.6797 10ZM68.7334 8.39941C67.3867 8.39941 66.1738 9.33314 66.1738 10.7998C66.1738 12.2665 67.2534 13.333 68.7334 13.333C70.2132 13.333 71.2927 12.4 71.293 10.9336C71.293 9.46693 70.0801 8.39942 68.7334 8.39941ZM54.4268 4.93359C55.3913 4.93361 56.1736 5.70893 56.1738 6.66602C56.1738 7.6233 55.3914 8.39939 54.4268 8.39941C53.4621 8.39941 52.6797 7.62331 52.6797 6.66602C52.6799 5.70892 53.4622 4.93359 54.4268 4.93359ZM76.4131 0C77.3864 0 78.1602 0.773398 78.1602 1.7334C78.1601 2.69337 77.3731 3.4668 76.4131 3.4668C75.4533 3.46662 74.667 2.69326 74.667 1.7334C74.667 0.773509 75.4532 0.000177552 76.4131 0Z" fill="#B531FD"/>
</g>
</g>
<defs>
<clipPath id="clip0_1756_16909">
<rect width="80" height="80" fill="white"/>
</clipPath>
<clipPath id="clip1_1756_16909">
<rect width="80" height="80" fill="white"/>
</clipPath>
</defs>
</svg>
