<svg width="120" height="36" viewBox="0 0 120 36" fill="none" xmlns="http://www.w3.org/2000/svg">
<g clip-path="url(#clip0_2039_4684)">
<path d="M4.38 12.5858L12.4992 4.46658L13.4472 5.41458C13.6704 5.63778 14.0352 5.63778 14.2584 5.41458L16.1544 3.51858C16.3776 3.29538 16.3776 2.93058 16.1544 2.70738L14.268 0.820979C13.2912 -0.155821 11.7096 -0.155821 10.7328 0.820979L0.732001 10.8194C-0.244799 11.7962 -0.244799 13.3778 0.732001 14.3546L3.0264 16.649L5.7336 13.9418L4.38 12.5882V12.5858Z" fill="#B531FD"/>
<path d="M24.2688 10.8194L22.3824 8.93302C22.1592 8.70982 21.7944 8.70982 21.5712 8.93302L19.6752 10.829C19.452 11.0522 19.452 11.417 19.6752 11.6402L20.6232 12.5882L12.5016 20.7098L9.7944 23.417L10.7352 24.3578C11.712 25.3346 13.2936 25.3346 14.2704 24.3578L24.2712 14.357C25.248 13.3802 25.248 11.7986 24.2712 10.8218L24.2688 10.8194Z" fill="#B531FD"/>
<path d="M24.2688 25.1808C25.2456 24.204 25.2456 22.6224 24.2688 21.6456L22.3824 19.7592C22.1592 19.536 21.7944 19.536 21.5712 19.7592L19.6752 21.6552C19.452 21.8784 19.452 22.2432 19.6752 22.4664L20.6232 23.4144L15.2088 28.8288L17.916 31.536L24.2688 25.1832V25.1808Z" fill="#00B4FE"/>
<path d="M12.4992 31.5359L4.3776 23.4143L4.6512 23.1407L11.4312 16.3584L12.4968 15.2928L13.4448 16.2408C13.668 16.464 14.0328 16.464 14.256 16.2408L16.152 14.3448C16.3752 14.1216 16.3752 13.7568 16.152 13.5336L14.2656 11.6472C13.2888 10.6704 11.7072 10.6704 10.7304 11.6472L7.8192 14.5584L3.7584 18.6192L0.729602 21.648C-0.247198 22.6248 -0.247198 24.2064 0.729602 25.1832L10.7304 35.184C11.7072 36.1607 13.2888 36.1607 14.2656 35.184L15.2064 34.2432L12.4992 31.5359Z" fill="#00B4FE"/>
<path d="M64.1328 23.112L59.1384 12.612C59.0376 12.4176 58.824 12.2712 58.4952 12.1752C58.1664 12.0768 57.8088 12.0288 57.4224 12.0288C57.036 12.0288 56.7024 12.0768 56.376 12.1752C56.0472 12.2712 55.8336 12.4176 55.7328 12.612L50.7144 23.112C50.6976 23.1768 50.6904 23.2248 50.6904 23.2584C50.6904 23.4 50.7744 23.52 50.9424 23.6232C51.1104 23.7264 51.3288 23.8104 51.5976 23.8752C51.8664 23.94 52.1184 23.9736 52.3536 23.9736C52.572 23.9736 52.7688 23.9472 52.9464 23.892C53.124 23.8392 53.2368 23.7456 53.2872 23.616L54.2952 21.7824H60.5496L61.584 23.616C61.6512 23.7456 61.764 23.8368 61.9248 23.892C62.0856 23.9472 62.2728 23.9736 62.4936 23.9736C62.7456 23.9736 63.0024 23.9424 63.2616 23.8752C63.5232 23.8104 63.7416 23.724 63.9168 23.616C64.0944 23.508 64.1808 23.3904 64.1808 23.2584C64.1808 23.2248 64.164 23.1768 64.1304 23.112H64.1328ZM54.9024 19.9368L57.4248 14.3784L59.9472 19.9368H54.9024Z" fill="#51637B"/>
<path d="M119.95 23.112L114.955 12.612C114.854 12.4176 114.641 12.2712 114.312 12.1752C113.983 12.0768 113.626 12.0288 113.239 12.0288C112.853 12.0288 112.519 12.0768 112.193 12.1752C111.864 12.2712 111.65 12.4176 111.55 12.612L106.531 23.112C106.514 23.1768 106.507 23.2248 106.507 23.2584C106.507 23.4 106.591 23.52 106.759 23.6232C106.927 23.7264 107.146 23.8104 107.414 23.8752C107.683 23.94 107.935 23.9736 108.17 23.9736C108.389 23.9736 108.586 23.9472 108.763 23.892C108.941 23.8392 109.054 23.7456 109.104 23.616L110.112 21.7824H116.366L117.401 23.616C117.468 23.7456 117.581 23.8368 117.742 23.892C117.902 23.9472 118.09 23.9736 118.31 23.9736C118.562 23.9736 118.819 23.9424 119.078 23.8752C119.34 23.8104 119.558 23.724 119.734 23.616C119.911 23.508 119.998 23.3904 119.998 23.2584C119.998 23.2248 119.981 23.1768 119.947 23.112H119.95ZM110.719 19.9368L113.242 14.3784L115.764 19.9368H110.719Z" fill="#51637B"/>
<path d="M68.1168 23.9712C67.7808 23.9712 67.4736 23.8992 67.1952 23.7576C66.9168 23.616 66.78 23.3928 66.78 23.0904V12.9145C66.78 12.6289 66.9072 12.4105 67.1592 12.2593C67.4112 12.1081 67.68 12.0312 67.9656 12.0312H76.8192C77.1216 12.0312 77.34 12.1584 77.4744 12.4104C77.6088 12.6624 77.676 12.9241 77.676 13.1928C77.676 13.5121 77.604 13.7953 77.4624 14.0377C77.3184 14.2825 77.1048 14.4025 76.8192 14.4025H69.4536V17.3953H73.3632C73.6488 17.3953 73.8624 17.5056 74.0064 17.724C74.148 17.9424 74.22 18.1944 74.22 18.48C74.22 18.7152 74.1528 18.9456 74.0184 19.1736C73.884 19.4016 73.6656 19.5144 73.3632 19.5144H69.4536V23.0928C69.4536 23.3952 69.3144 23.6184 69.0384 23.76C68.76 23.904 68.4528 23.9736 68.1168 23.9736V23.9712Z" fill="#51637B"/>
<path d="M81.2928 23.9712C81.0072 23.9712 80.7384 23.8968 80.4864 23.7456C80.2344 23.5944 80.1096 23.376 80.1096 23.0904V12.9096C80.1096 12.624 80.2344 12.4056 80.4864 12.2544C80.7384 12.1032 81.0072 12.0288 81.2928 12.0288H90.2544C90.5736 12.0288 90.7992 12.1536 90.9336 12.4056C91.068 12.6576 91.1352 12.9168 91.1352 13.1856C91.1352 13.5048 91.0584 13.7856 90.9096 14.028C90.7584 14.2704 90.54 14.3928 90.2544 14.3928H82.776V17.4024H86.652C86.9376 17.4024 87.156 17.5128 87.3072 17.7288C87.4584 17.9472 87.5328 18.1992 87.5328 18.4848C87.5328 18.72 87.4656 18.9504 87.3312 19.176C87.1968 19.4016 86.9712 19.5168 86.652 19.5168H82.776V21.6024H90.2544C90.54 21.6024 90.7584 21.72 90.9096 21.9552C91.0608 22.1904 91.1352 22.476 91.1352 22.812C91.1352 23.0808 91.068 23.34 90.9336 23.592C90.7992 23.844 90.5736 23.9688 90.2544 23.9688H81.2928V23.9712Z" fill="#51637B"/>
<path d="M47.3256 23.9714C48.1872 23.9714 48.8856 23.273 48.8856 22.4114V20.7458C48.8856 20.549 48.7248 20.3882 48.528 20.3882H46.8552C46.6584 20.3882 46.4976 20.549 46.4976 20.7458V21.581H41.7216V23.969H47.328L47.3256 23.9714Z" fill="#51637B"/>
<path d="M39.3312 21.5832V14.4168H39.5736H45.5568H46.4976V15.252C46.4976 15.4488 46.6584 15.6096 46.8552 15.6096H48.528C48.7248 15.6096 48.8856 15.4488 48.8856 15.252V13.5864C48.8856 12.7248 48.1872 12.0264 47.3256 12.0264H44.7576H41.1744H38.5008C37.6392 12.0264 36.9408 12.7248 36.9408 13.5864V22.4112C36.9408 23.2728 37.6392 23.9712 38.5008 23.9712H39.3312V21.5832Z" fill="#51637B"/>
<path d="M103.507 23.9714C104.369 23.9714 105.067 23.273 105.067 22.4114V20.7458C105.067 20.549 104.906 20.3882 104.71 20.3882H103.037C102.84 20.3882 102.679 20.549 102.679 20.7458V21.581H97.9032V23.969H103.51L103.507 23.9714Z" fill="#51637B"/>
<path d="M95.5128 21.5832V14.4168H95.7552H101.738H102.679V15.252C102.679 15.4488 102.84 15.6096 103.037 15.6096H104.71C104.906 15.6096 105.067 15.4488 105.067 15.252V13.5864C105.067 12.7248 104.369 12.0264 103.507 12.0264H100.939H97.356H94.6824C93.8208 12.0264 93.1224 12.7248 93.1224 13.5864V22.4112C93.1224 23.2728 93.8208 23.9712 94.6824 23.9712H95.5128V21.5832Z" fill="#51637B"/>
</g>
<defs>
<clipPath id="clip0_2039_4684">
<rect width="120" height="35.8272" fill="white" transform="translate(0 0.0864258)"/>
</clipPath>
</defs>
</svg>
